<svg width="375" height="451" viewBox="0 0 375 451" fill="none" xmlns="http://www.w3.org/2000/svg">
<path d="M0 0H375V451H0V0Z" fill="url(#paint0_linear_111_329)"/>
<mask id="mask0_111_329" style="mask-type:alpha" maskUnits="userSpaceOnUse" x="0" y="0" width="375" height="414">
<path d="M0 0H375V349.044C375 379.213 375 394.298 365.627 403.671C356.255 413.043 341.17 413.043 311 413.043H64C33.8301 413.043 18.7452 413.043 9.37258 403.671C0 394.298 0 379.213 0 349.043V0Z" fill="url(#paint1_linear_111_329)"/>
</mask>
<g mask="url(#mask0_111_329)">
<circle cx="33.8257" cy="357.195" r="4.52899" transform="rotate(-85.914 33.8257 357.195)" fill="#ECBBA8"/>
<circle cx="318.246" cy="310.995" r="4.52899" transform="rotate(-85.914 318.246 310.995)" fill="#ECBBA8"/>
<circle cx="54.659" cy="162.449" r="4.52899" transform="rotate(-85.914 54.659 162.449)" fill="#ECBBA8"/>
<circle cx="148.8" cy="233.945" r="3.62319" transform="rotate(-85.914 148.8 233.945)" fill="#ECBBA8"/>
<circle cx="349.887" cy="366.191" r="3.62319" transform="rotate(-85.914 349.887 366.191)" fill="#ECBBA8"/>
<path d="M342.668 198.364C379.499 221.711 429.269 266.352 449.55 285.755L449.697 290.376L477.881 321.864L465.549 -65.2162C328.844 -78.2103 50.6827 -93.6374 31.6718 -51.3927C7.9082 1.41305 63.2203 49.3862 99.3638 76.5722C135.507 103.758 234.329 119.694 261.107 125.203C287.886 130.711 296.629 169.18 342.668 198.364Z" fill="#ECBBA8"/>
<path d="M335.779 181.812C352.721 205.33 403.976 259.062 427.485 282.988C441.581 304.284 468.496 317.73 480.192 321.791L467.767 -68.1783C319.76 -72.9086 22.0053 -75.2583 15.0464 -46.8147C6.34777 -11.2601 75.9672 50.1368 113.377 80.7525C150.786 111.368 184.725 105.66 245.866 118.749C307.006 131.837 314.601 152.414 335.779 181.812Z" fill="white"/>
<path d="M398.277 201.219C427.039 232.688 463.644 256.197 478.351 264.017L467.878 -64.7121C319.745 -67.3179 22.7633 -69.615 19.8962 -57.9573C16.3122 -43.3852 92.0996 66.394 156.99 70.1097C221.88 73.8255 251.668 101.214 291.396 113.828C331.123 126.442 362.325 161.882 398.277 201.219Z" fill="#42A8C3"/>
<path d="M389.43 141.355C414.244 165.085 433.195 171.768 439.568 172.143C464.473 155.157 438.261 131.125 402.795 88.8806C367.328 46.6367 317.456 96.8044 330.799 98.1142C344.142 99.424 358.413 111.692 389.43 141.355Z" fill="#3999B2"/>
<path d="M260.171 41.376C278.493 35.5874 303.962 54.4388 310.894 54.2179C323.333 81.5808 311.336 68.0835 287.649 68.8382C263.962 69.5929 241.85 47.1646 260.171 41.376Z" fill="#3999B2"/>
<path d="M434.875 24.8219C462.556 36.8943 466.214 58.5225 464.582 67.8276L469.782 67.6619C473.826 67.5331 479.278 60.7665 468.733 34.7311C459.745 12.5424 444.878 8.28414 441.452 7.65747C442.228 7.71707 443.661 7.77073 445.895 7.69954C462.072 7.18415 484.824 13.3992 461.877 -17.099C438.929 -47.5972 399.905 -1.82307 385.031 3.27737C370.157 8.3778 384.608 -10.0105 362.046 -28.3763C339.485 -46.7422 374.039 -51.3128 360.776 -68.2399C347.514 -85.1669 325.535 -67.1171 307.6 -49.196C289.664 -31.275 332.435 -32.0594 340.553 -13.2335C348.566 5.35003 323.433 -8.25834 275.238 -34.3543L273.341 -35.3814C223.909 -62.1441 160.039 -52.0127 178.004 -50.8501C195.969 -49.6875 200.719 -45.7908 229.168 -24.1428C257.617 -2.49477 299.626 -9.03804 341.326 11.0312C383.026 31.1004 400.273 9.7314 434.875 24.8219Z" fill="#3999B2"/>
<path d="M412.887 -29.9961C431.468 -42.1546 452.774 -42.6404 461.103 -41.3636L465.512 -66.3717C442.925 -67.3871 394.78 -68.2822 382.896 -63.7396C368.041 -58.0612 383.54 -43.5191 383.835 -34.2752C384.129 -25.0313 389.66 -14.7981 412.887 -29.9961Z" fill="#3999B2"/>
</g>
<defs>
<linearGradient id="paint0_linear_111_329" x1="187.5" y1="0" x2="272.034" y2="503.158" gradientUnits="userSpaceOnUse">
<stop stop-color="#F2D2C5"/>
<stop offset="1" stop-color="#F9CAB3"/>
</linearGradient>
<linearGradient id="paint1_linear_111_329" x1="243.207" y1="-88.3152" x2="123.262" y2="480.62" gradientUnits="userSpaceOnUse">
<stop stop-color="#F4E4DE"/>
<stop offset="1" stop-color="#F9CAB3"/>
</linearGradient>
</defs>
</svg>
