<svg width="21" height="21" viewBox="0 0 21 21" fill="none" xmlns="http://www.w3.org/2000/svg">
<path fill-rule="evenodd" clip-rule="evenodd" d="M16.4526 8.06943C16.4526 9.11604 16.7292 9.73293 17.338 10.4438C17.7993 10.9675 17.9467 11.6398 17.9467 12.3692C17.9467 13.0977 17.7073 13.7893 17.2278 14.3508C16.6 15.0239 15.7146 15.4536 14.8111 15.5283C13.5017 15.6399 12.1914 15.7339 10.8638 15.7339C9.53532 15.7339 8.2259 15.6777 6.91649 15.5283C6.01208 15.4536 5.12671 15.0239 4.49975 14.3508C4.02021 13.7893 3.78003 13.0977 3.78003 12.3692C3.78003 11.6398 3.92828 10.9675 4.38877 10.4438C5.01656 9.73293 5.27496 9.11604 5.27496 8.06943V7.71441C5.27496 6.31277 5.62447 5.39625 6.34419 4.49904C7.41425 3.19057 9.12949 2.40582 10.8265 2.40582H10.901C12.6345 2.40582 14.4052 3.22834 15.4571 4.59304C16.1395 5.47179 16.4526 6.3497 16.4526 7.71441V8.06943ZM8.42476 17.4565C8.42476 17.0369 8.80988 16.8447 9.16601 16.7624C9.58261 16.6743 12.1211 16.6743 12.5377 16.7624C12.8938 16.8447 13.2789 17.0369 13.2789 17.4565C13.2582 17.856 13.0239 18.2102 12.7 18.4351C12.2801 18.7625 11.7873 18.9698 11.2722 19.0445C10.9873 19.0814 10.7073 19.0822 10.4324 19.0445C9.91638 18.9698 9.42359 18.7625 9.00451 18.4343C8.67985 18.2102 8.44546 17.856 8.42476 17.4565Z" fill="#42A8C3"/>
</svg>
