<svg width="18" height="18" viewBox="0 0 18 18" fill="none" xmlns="http://www.w3.org/2000/svg">
<path fill-rule="evenodd" clip-rule="evenodd" d="M0.666672 7.63076C0.666672 3.64054 3.86696 0.405823 7.8147 0.405823C9.71048 0.405823 11.5286 1.16702 12.8691 2.52196C14.2096 3.8769 14.9627 5.71459 14.9627 7.63076C14.9627 11.621 11.7625 14.8557 7.8147 14.8557C3.86696 14.8557 0.666672 11.621 0.666672 7.63076ZM14.8445 13.4511L16.9734 15.1695H17.0103C17.441 15.6048 17.441 16.3107 17.0103 16.746C16.5796 17.1813 15.8813 17.1813 15.4506 16.746L13.6839 14.7212C13.5169 14.553 13.423 14.3245 13.423 14.0861C13.423 13.8478 13.5169 13.6193 13.6839 13.4511C14.006 13.1311 14.5224 13.1311 14.8445 13.4511Z" fill="#42A8C3"/>
</svg>
