<svg width="9" height="9" viewBox="0 0 9 9" fill="none" xmlns="http://www.w3.org/2000/svg">
<path fill-rule="evenodd" clip-rule="evenodd" d="M3.28766 0.767132H5.54154C6.53149 0.767132 7.33149 1.158 7.34245 2.15161V7.69681C7.34245 7.75891 7.32784 7.82101 7.29861 7.87581C7.25113 7.96348 7.17076 8.02923 7.07213 8.05846C6.97715 8.08768 6.87122 8.07307 6.78355 8.02193L4.41642 6.83837L2.04565 8.02193C1.99122 8.05079 1.92875 8.06942 1.86665 8.06942C1.66209 8.06942 1.4977 7.90138 1.4977 7.69681V2.15161C1.4977 1.158 2.30135 0.767132 3.28766 0.767132ZM3.03925 3.55069H5.78994C5.94702 3.55069 6.07487 3.42247 6.07487 3.26211C6.07487 3.10138 5.94702 2.97352 5.78994 2.97352H3.03925C2.88218 2.97352 2.75432 3.10138 2.75432 3.26211C2.75432 3.42247 2.88218 3.55069 3.03925 3.55069Z" fill="white"/>
</svg>
