<svg width="40" height="41" viewBox="0 0 40 41" fill="none" xmlns="http://www.w3.org/2000/svg">
<path fill-rule="evenodd" clip-rule="evenodd" d="M5 11.7857C5 7.41037 5.04685 5.95239 10.8333 5.95239C16.6198 5.95239 16.6667 7.41037 16.6667 11.7857C16.6667 16.1611 16.6851 17.6191 10.8333 17.6191C4.98155 17.6191 5 16.1611 5 11.7857Z" stroke="#FFAC84" stroke-width="1.5" stroke-linecap="round" stroke-linejoin="round"/>
<path fill-rule="evenodd" clip-rule="evenodd" d="M23.3333 11.7857C23.3333 7.41037 23.3802 5.95239 29.1667 5.95239C34.9532 5.95239 35 7.41037 35 11.7857C35 16.1611 35.0185 17.6191 29.1667 17.6191C23.3149 17.6191 23.3333 16.1611 23.3333 11.7857Z" fill="#42A8C3" stroke="#42A8C3" stroke-width="1.5" stroke-linecap="round" stroke-linejoin="round"/>
<path fill-rule="evenodd" clip-rule="evenodd" d="M5 30.1191C5 25.7437 5.04685 24.2857 10.8333 24.2857C16.6198 24.2857 16.6667 25.7437 16.6667 30.1191C16.6667 34.4944 16.6851 35.9524 10.8333 35.9524C4.98155 35.9524 5 34.4944 5 30.1191Z" fill="#42A8C3" stroke="#42A8C3" stroke-width="1.5" stroke-linecap="round" stroke-linejoin="round"/>
<path fill-rule="evenodd" clip-rule="evenodd" d="M23.3333 30.1191C23.3333 25.7437 23.3802 24.2857 29.1667 24.2857C34.9532 24.2857 35 25.7437 35 30.1191C35 34.4944 35.0185 35.9524 29.1667 35.9524C23.3149 35.9524 23.3333 34.4944 23.3333 30.1191Z" stroke="#FFAC84" stroke-width="1.5" stroke-linecap="round" stroke-linejoin="round"/>
</svg>
