<svg width="21" height="20" viewBox="0 0 21 20" fill="none" xmlns="http://www.w3.org/2000/svg">
<path fill-rule="evenodd" clip-rule="evenodd" d="M14.5165 0.500694C15.1475 0.500694 15.7775 0.589694 16.3765 0.790694C20.0675 1.99069 21.3975 6.04069 20.2865 9.58069C19.6565 11.3897 18.6265 13.0407 17.2775 14.3897C15.3465 16.2597 13.2275 17.9197 10.9465 19.3497L10.6965 19.5007L10.4365 19.3397C8.14746 17.9197 6.01646 16.2597 4.06746 14.3797C2.72746 13.0307 1.69646 11.3897 1.05646 9.58069C-0.0735406 6.04069 1.25646 1.99069 4.98746 0.769694C5.27746 0.669694 5.57646 0.599694 5.87646 0.560694H5.99646C6.27746 0.519694 6.55646 0.500694 6.83646 0.500694H6.94646C7.57646 0.519694 8.18646 0.629694 8.77746 0.830694H8.83646C8.87646 0.849694 8.90646 0.870694 8.92646 0.889694C9.14746 0.960694 9.35646 1.04069 9.55646 1.15069L9.93646 1.32069C10.0283 1.36967 10.1313 1.44449 10.2204 1.50916C10.2769 1.55014 10.3277 1.58703 10.3665 1.61069C10.3828 1.62032 10.3994 1.63 10.4161 1.63976C10.5018 1.68981 10.5911 1.74195 10.6665 1.79969C11.7775 0.950694 13.1265 0.490694 14.5165 0.500694ZM17.1765 7.70069C17.5865 7.68969 17.9365 7.36069 17.9665 6.93969V6.82069C17.9965 5.41969 17.1475 4.15069 15.8565 3.66069C15.4465 3.51969 14.9965 3.74069 14.8465 4.16069C14.7065 4.58069 14.9265 5.04069 15.3465 5.18969C15.9875 5.42969 16.4165 6.06069 16.4165 6.75969V6.79069C16.3975 7.01969 16.4665 7.24069 16.6065 7.41069C16.7465 7.58069 16.9565 7.67969 17.1765 7.70069Z" fill="#D6D6D6"/>
</svg>
