<svg width="18" height="24" viewBox="0 0 18 24" fill="none" xmlns="http://www.w3.org/2000/svg">
<path d="M9 0.545563C6.61388 0.54827 4.32627 1.49735 2.63903 3.18459C0.951787 4.87183 0.00270689 7.15945 0 9.54556C0 17.2467 8.18182 23.063 8.53057 23.3064C8.66814 23.4027 8.83203 23.4544 9 23.4544C9.16797 23.4544 9.33186 23.4027 9.46943 23.3064C9.81818 23.063 18 17.2467 18 9.54556C17.9973 7.15945 17.0482 4.87183 15.361 3.18459C13.6737 1.49735 11.3861 0.54827 9 0.545563ZM9 6.27284C9.64728 6.27284 10.28 6.46478 10.8182 6.82439C11.3564 7.184 11.7759 7.69513 12.0236 8.29314C12.2713 8.89116 12.3361 9.54919 12.2098 10.184C12.0836 10.8189 11.7719 11.402 11.3142 11.8597C10.8565 12.3174 10.2733 12.6291 9.63848 12.7554C9.00363 12.8817 8.34559 12.8169 7.74758 12.5692C7.14957 12.3215 6.63844 11.902 6.27883 11.3638C5.91922 10.8256 5.72727 10.1928 5.72727 9.54556C5.72727 8.67758 6.07208 7.84515 6.68583 7.23139C7.29959 6.61764 8.13202 6.27284 9 6.27284Z" fill="#D6D6D6"/>
</svg>
